<?xml version="1.0" encoding="UTF-8"?>
<svg version="1.1" xmlns="http://www.w3.org/2000/svg" width="1536" height="1024">
<path d="M0 0 C506.88 0 1013.76 0 1536 0 C1536 337.92 1536 675.84 1536 1024 C1029.12 1024 522.24 1024 0 1024 C0 686.08 0 348.16 0 0 Z " fill="#F6FBFE" transform="translate(0,0)"/>
<path d="M0 0 C1.20645152 -0.00480972 1.20645152 -0.00480972 2.4372758 -0.0097166 C5.1192739 -0.0179858 7.80104688 -0.01210317 10.48304844 -0.00622082 C12.43059627 -0.0092429 14.37814292 -0.01313266 16.32568747 -0.01781338 C21.66761052 -0.02809466 27.00946646 -0.02591122 32.35139501 -0.02163279 C38.1163155 -0.01916584 43.88121981 -0.02817931 49.64613438 -0.03567028 C60.93603415 -0.04841978 72.22591014 -0.05021068 83.51581591 -0.04787002 C92.69172027 -0.04608711 101.86761742 -0.0478359 111.04352093 -0.05209446 C112.34938479 -0.05268965 113.65524866 -0.05328484 115.00068416 -0.05389806 C117.65351704 -0.05510981 120.30634993 -0.05632394 122.95918281 -0.05754044 C140.77066844 -0.06548189 158.58215153 -0.06924693 176.39363861 -0.06522369 C177.08990233 -0.06506732 177.78616604 -0.06491094 178.50352866 -0.06474983 C182.03234286 -0.06394406 185.56115705 -0.06309829 189.08997124 -0.06223653 C189.79078573 -0.06206544 190.49160022 -0.06189435 191.21365151 -0.06171808 C192.63086741 -0.06137142 194.04808331 -0.06102289 195.46529922 -0.06067249 C217.5198612 -0.05531465 239.5743832 -0.06324843 261.62893772 -0.08170605 C286.41619608 -0.10242647 311.20342946 -0.11311767 335.99069697 -0.10913056 C349.11195061 -0.10721724 362.23316784 -0.10971895 375.35441494 -0.1238451 C386.52357938 -0.135748 397.69268496 -0.13717595 408.86185019 -0.12505493 C414.56026467 -0.11915885 420.25857144 -0.1180871 425.9569788 -0.13005733 C431.17478787 -0.14089067 436.39239897 -0.13784305 441.61019868 -0.12379565 C443.49636688 -0.12114173 445.38255046 -0.12353703 447.26870357 -0.13153151 C464.53143771 -0.19961334 478.41673776 2.70203909 491.48269749 14.99666309 C497.97314059 22.08830036 501.69442724 30.16862352 504.54910374 39.25447559 C504.87910374 40.24447559 505.20910374 41.23447559 505.54910374 42.25447559 C505.64044328 43.70087018 505.67651903 45.15111952 505.6779049 46.60039461 C505.6811771 47.49539106 505.68444929 48.39038751 505.68782064 49.31250507 C505.68633702 50.29881087 505.6848534 51.28511668 505.68332481 52.30131054 C505.68567704 53.35104575 505.68802927 54.40078096 505.69045278 55.48232633 C505.69716306 59.03532304 505.69668395 62.58828336 505.69627476 66.1412859 C505.69957213 68.70023645 505.70329743 71.25918649 505.70741624 73.81813586 C505.71675369 80.13635107 505.72066622 86.45455927 505.7229352 92.77278053 C505.72589436 100.33797398 505.73459018 107.90315811 505.74334948 115.46834668 C505.76420827 133.75732577 505.77466652 152.04630649 505.78347909 170.3352947 C505.78768416 178.98668685 505.79290638 187.6380783 505.79816362 196.28946986 C505.81605639 225.9008116 505.83105203 255.51215353 505.83848381 285.12349987 C505.83895857 286.98307414 505.83943446 288.84264841 505.83991147 290.70222268 C505.84026604 292.08550811 505.84026604 292.08550811 505.84062776 293.4967387 C505.84182897 298.16907678 505.84304442 302.84141486 505.84426975 307.51375294 C505.8445099 308.44099657 505.84475005 309.36824019 505.84499748 310.32358211 C505.85288878 340.3808102 505.87631581 370.43799881 505.9088257 400.49520966 C505.94312888 432.26842055 505.96283549 464.04160834 505.96612805 495.81483805 C505.96654559 499.30345163 505.96702516 502.79206519 505.96755123 506.28067875 C505.96767442 507.13968235 505.96779761 507.99868595 505.96792454 508.88371996 C505.97025615 522.70483755 505.98591413 536.52590929 506.00639308 550.34701055 C506.02665618 564.24305717 506.03212612 578.13904876 506.02262244 592.03510742 C506.0174091 600.28861212 506.02327699 608.5419335 506.04515712 616.7954118 C506.06026865 622.96233006 506.05441555 629.12906286 506.0404866 635.29598017 C506.03810347 637.78803306 506.0424704 640.28010358 506.05431525 642.77212946 C506.16057662 666.60710161 506.16057662 666.60710161 501.54910374 677.25447559 C500.99703903 678.61143467 500.99703903 678.61143467 500.4338215 679.99580705 C496.73896978 688.71834531 489.89522868 696.73862585 481.54910374 701.25447559 C481.52783421 699.53357716 481.52783421 699.53357716 481.50613499 697.77791309 C480.56208372 658.1076735 472.22894416 618.23083315 464.21316624 579.47322559 C463.60749646 576.53750854 463.01361173 573.59972197 462.42410374 570.66072559 C460.79152744 562.59690629 458.97517064 554.66412833 456.60379124 546.77791309 C455.83969279 544.22525827 455.11862725 541.67913599 454.43191624 539.10603809 C450.93895875 526.22884238 446.64925114 514.61363768 437.05300999 504.92635059 C435.54910374 503.25447559 435.54910374 503.25447559 435.54910374 501.25447559 C434.98449436 501.00568653 434.41988499 500.75689747 433.83816624 500.50056934 C431.1872085 499.05747119 429.19329228 497.30881887 426.92410374 495.31697559 C407.0901064 478.95392779 368.09422286 453.25447559 341.54910374 453.25447559 C342.40181858 454.67373341 342.40181858 454.67373341 343.27175999 456.12166309 C365.96017314 494.63173947 370.84750521 545.80841242 361.54910374 589.25447559 C362.20910374 589.44010059 362.86910374 589.62572559 363.54910374 589.81697559 C371.82946787 593.78465008 376.15016852 599.91030845 379.54910374 608.25447559 C382.38052801 616.74874841 380.54443174 624.59840745 377.03347874 632.56306934 C374.47329617 637.20508459 371.6091128 640.53976791 367.17410374 643.44197559 C366.44449436 643.93053028 365.71488499 644.41908497 364.96316624 644.92244434 C357.51304148 649.0332737 349.86693713 649.18053327 341.54910374 648.25447559 C332.12651671 645.37626376 325.5944219 639.67213288 320.39675999 631.42635059 C317.08197814 624.39962409 317.40217145 614.9514364 319.20535374 607.56697559 C322.58154251 599.18471381 329.24948797 591.91481896 337.54910374 588.25447559 C340.20230498 587.50478237 342.86131365 586.87667518 345.54910374 586.25447559 C351.46992556 544.49378551 352.23003497 493.7596177 325.84866428 458.08406544 C319.91451163 450.30043706 313.96584017 443.86434801 305.66238499 438.61385059 C304.96500217 438.16525684 304.26761936 437.71666309 303.54910374 437.25447559 C302.85687717 436.87033497 302.16465061 436.48619434 301.45144749 436.09041309 C298.56137519 433.30122628 297.80535467 429.90351132 296.79910374 426.12947559 C296.58302464 425.33484913 296.36694553 424.54022266 296.14431858 423.72151661 C294.08126935 415.48153189 294.06223462 407.68173736 294.54910374 399.25447559 C294.54781467 398.33666309 294.54652561 397.41885059 294.54519749 396.47322559 C294.73804711 389.84827396 298.13393384 386.86688676 302.54910374 382.25447559 C315.02236624 368.39735895 324.31866003 352.80483631 329.92556858 334.99763966 C334.29231607 321.13577855 334.29231607 321.13577855 338.71316624 318.03572559 C342.11160374 317.12947559 342.11160374 317.12947559 345.47097874 316.67635059 C350.64561326 315.96713672 353.36332237 313.22486554 356.54910374 309.25447559 C364.63876985 297.52967407 368.83247459 285.59261462 368.98660374 271.25447559 C368.99691624 270.45308155 369.00722874 269.65168751 369.01785374 268.8260088 C368.92653944 262.79609439 367.67733382 258.50789568 363.42410374 254.00447559 C359.537947 251.63898888 356.1517148 250.20373815 351.54910374 250.25447559 C348.73460353 251.29311171 346.29087137 252.5601564 343.71316624 254.09041309 C341.54910374 255.25447559 341.54910374 255.25447559 338.54910374 255.25447559 C338.54910374 251.29447559 338.54910374 247.33447559 338.54910374 243.25447559 C336.89910374 242.59447559 335.24910374 241.93447559 333.54910374 241.25447559 C317.83318676 228.70491044 312.29701367 194.9131479 310.13894749 176.02400684 C309.47459312 172.90462111 308.3930935 170.84341882 306.54910374 168.25447559 C299.99728174 164.9785646 289.4399638 169.96539792 282.98660374 172.00447559 C270.30358507 175.89021075 257.58870171 178.85593402 244.54910374 181.25447559 C243.64466526 181.43993946 242.74022678 181.62540333 241.80838108 181.81648731 C232.89161149 183.52486173 224.09527003 183.65062248 215.04910374 183.62947559 C214.25496067 183.62959644 213.4608176 183.62971729 212.6426096 183.6298418 C200.22305455 183.6029434 188.53212608 182.75029787 176.54910374 179.25447559 C175.43793186 178.95412403 174.32675999 178.65377247 173.18191624 178.34431934 C165.19798579 175.94914021 157.89818949 172.12470418 150.54910374 168.25447559 C150.54652561 168.80490528 150.54394749 169.35533497 150.54129124 169.92244434 C149.53278564 191.60531472 138.91029184 224.15947277 123.54910374 240.25447559 C122.88910374 240.58447559 122.22910374 240.91447559 121.54910374 241.25447559 C121.54910374 246.53447559 121.54910374 251.81447559 121.54910374 257.25447559 C118.17401116 255.56692931 115.38105888 253.76923302 112.29910374 251.62947559 C107.26649319 248.41531499 104.45060637 247.13522509 98.54910374 248.25447559 C94.48745828 250.4206865 92.4958761 253.20508826 91.04910374 257.58650684 C89.37385926 266.52550667 89.75961011 276.60070559 92.54910374 285.25447559 C92.81722874 286.12330372 93.08535374 286.99213184 93.36160374 287.88728809 C97.0242354 298.84466114 102.8135542 310.10238451 113.36550999 315.76619434 C115.23229518 316.67348675 117.12080047 317.53826207 119.03347874 318.34431934 C122.8205297 321.21989065 123.89335193 324.89525241 125.54910374 329.25447559 C126.15443603 330.74647587 126.76247121 332.23738263 127.37332249 333.72713184 C127.67496311 334.47349903 127.97660374 335.21986622 128.28738499 335.98885059 C134.07385621 350.18118331 141.08924954 363.15033144 150.54910374 375.25447559 C151.26582249 376.17486622 151.98254124 377.09525684 152.72097874 378.04353809 C156.18683081 382.61106463 156.18683081 382.61106463 160.20535374 386.66072559 C165.82785634 393.32927519 164.26084235 410.55116863 163.76541233 418.98738575 C163.07923777 426.17905274 161.42055786 432.76533972 155.79129124 437.64510059 C153.73587883 438.99476989 151.63830847 440.28258299 149.50222874 441.50056934 C146.01220154 443.57335005 143.54572548 446.00450907 140.85379124 449.00447559 C139.54910374 450.25447559 139.54910374 450.25447559 137.54910374 450.25447559 C137.29386936 450.81392872 137.03863499 451.37338184 136.77566624 451.94978809 C135.38324305 454.56612465 133.72194812 456.77293854 131.92410374 459.12947559 C110.01245182 489.297692 107.09579412 528.99181154 111.54910374 565.25447559 C112.69185764 565.56578419 112.69185764 565.56578419 113.85769749 565.88338184 C126.24033271 569.57807575 135.71051666 577.025659 142.31082249 588.25056934 C146.43824773 596.25557569 148.75223708 603.90233941 149.65847874 612.83260059 C149.74256992 613.65206165 149.82666111 614.47152271 149.91330051 615.31581593 C150.75612777 624.28743185 150.85164095 633.2424196 150.80984592 642.24763966 C150.79894816 645.0444013 150.80991266 647.84054351 150.82254124 650.63728809 C150.82122217 652.44197699 150.81866503 654.24666551 150.81472874 656.05135059 C150.82080143 657.28579914 150.82080143 657.28579914 150.8269968 658.54518604 C150.78703632 663.48305046 150.23992137 667.59762597 148.54910374 672.25447559 C144.25111465 676.41381987 139.69670991 676.53531851 133.99441624 676.47713184 C130.83196982 676.18917746 128.96876303 675.29606312 126.54910374 673.25447559 C123.88136767 669.25287149 123.83431561 665.96016411 124.54910374 661.25447559 C126.42530987 658.75286742 127.78801677 657.63501908 130.54910374 656.25447559 C133.22146583 656.12032087 135.87160862 656.21129019 138.54910374 656.25447559 C139.1403351 620.25835094 139.1403351 620.25835094 123.54910374 589.25447559 C116.55604198 582.82581449 109.72542076 580.72587602 100.25222874 580.94588184 C92.68171092 581.81014616 86.59014576 586.7906365 81.54910374 592.25447559 C68.88417375 609.72334454 69.08457109 634.62862829 68.54910374 655.25447559 C69.16326145 655.23997364 69.77741917 655.22547169 70.41018772 655.21053028 C71.21786594 655.19925098 72.02554417 655.18797169 72.85769749 655.17635059 C74.05737156 655.15459766 74.05737156 655.15459766 75.28128147 655.13240528 C77.54910374 655.25447559 77.54910374 655.25447559 80.61160374 656.50447559 C83.35494385 660.39824865 83.1096749 663.71140253 83.11550999 668.37947559 C82.42326867 671.89319705 81.33655308 673.06903437 78.54910374 675.25447559 C73.31926478 676.99775525 66.74115166 677.42793321 61.49832249 675.50056934 C58.52259305 673.61766362 56.62794499 671.58907582 55.54910374 668.25447559 C49.91419688 643.0631273 53.97242079 607.41003558 67.40310764 584.99812794 C72.77099961 576.83078997 80.51250284 570.8771366 89.54910374 567.25447559 C91.53882917 566.86447073 93.53846527 566.51609376 95.54910374 566.25447559 C95.47691624 565.10334278 95.40472874 563.95220997 95.33035374 562.76619434 C94.64343482 551.24746865 94.34522337 539.79170597 94.54910374 528.25447559 C94.55635471 527.50262989 94.56360569 526.75078419 94.57107639 525.97615528 C94.80579564 507.55666188 97.60408737 488.01422905 105.54910374 471.25447559 C106.04668186 470.20131153 106.54425999 469.14814747 107.05691624 468.06306934 C109.69044474 462.67029112 112.5513342 457.45060946 115.54910374 452.25447559 C79.66531857 462.71203584 30.98181249 480.93387811 11.48367405 515.12263966 C4.80946109 527.87150646 1.15763102 541.3433266 -1.99825954 555.29012012 C-2.6076889 557.93492517 -3.27635908 560.56310366 -3.95089626 563.19197559 C-7.2037709 576.16868402 -9.88962185 589.25123815 -12.45089626 602.37947559 C-12.68784206 603.58579639 -12.92478786 604.7921172 -13.16891384 606.03499317 C-13.95434607 610.10394256 -14.70893003 614.17742381 -15.45089626 618.25447559 C-15.60570461 619.0931316 -15.76051296 619.93178761 -15.92001247 620.79585743 C-18.97900016 637.53689021 -20.87517643 654.31860873 -22.50692654 671.2525835 C-22.83645646 674.65354385 -23.1754002 678.05356684 -23.51339626 681.45369434 C-24.16760005 688.0531526 -24.81292949 694.65342894 -25.45089626 701.25447559 C-38.49735712 692.73654756 -46.57824644 680.05081318 -49.97678174 664.91189698 C-50.42013718 662.42688085 -50.57728448 660.18438561 -50.57969743 657.66542095 C-50.58296962 656.7671071 -50.58624182 655.86879326 -50.58961317 654.94325778 C-50.58812955 653.9635245 -50.58664592 652.98379122 -50.58511734 651.97436905 C-50.58746957 650.92371493 -50.5898218 649.87306081 -50.59224531 648.79056868 C-50.59893755 645.24649917 -50.59847702 641.7024663 -50.59806728 638.158391 C-50.60136576 635.60112644 -50.60509129 633.0438624 -50.60920876 630.48659903 C-50.61853404 624.18035011 -50.62245669 617.87410821 -50.62472773 611.56785325 C-50.62768998 604.01541883 -50.63638752 596.46299373 -50.64514201 588.91056419 C-50.66598627 570.65557229 -50.6764561 552.40057878 -50.68527162 534.14557776 C-50.68947807 525.5099895 -50.69470006 516.87440194 -50.69995615 508.23881428 C-50.71784614 478.67938705 -50.73284234 449.11995963 -50.74027634 419.5605278 C-50.74075109 417.70477807 -50.74122698 415.84902833 -50.741704 413.9932786 C-50.74194037 413.07299271 -50.74217675 412.15270682 -50.74242029 411.20453348 C-50.74362149 406.54190025 -50.74483694 401.87926702 -50.74606228 397.2166338 C-50.74630243 396.29132002 -50.74654258 395.36600625 -50.74679001 394.41265267 C-50.75468332 364.41030268 -50.77811591 334.40799222 -50.81061822 304.4056595 C-50.84491717 272.68698858 -50.86462752 240.96834079 -50.86792058 209.24965101 C-50.86833812 205.76754605 -50.86881768 202.2854411 -50.86934376 198.80333614 C-50.86946695 197.94594127 -50.86959014 197.0885464 -50.86971707 196.20516987 C-50.87204897 182.40814033 -50.88770838 168.61115671 -50.9081856 154.81414354 C-50.92844293 140.94524326 -50.93392134 127.07639812 -50.92441497 113.20748579 C-50.9191997 104.96931296 -50.92507867 96.73132375 -50.94694964 88.49317736 C-50.96205115 82.33953249 -50.95621496 76.18607365 -50.94227912 70.03242976 C-50.93989437 67.5444921 -50.94427127 65.05653681 -50.95610777 62.56862616 C-51.04114993 43.51272974 -49.50765422 27.63070533 -35.45089626 13.25447559 C-24.44556007 4.5760909 -14.08525191 -0.08474258 0 0 Z " fill="#66BBFE" transform="translate(223.45089626312256,126.7455244064331)"/>
<path d="M0 0 C6.42661678 4.81996258 6.99533086 11.54252792 8.25 19.0625 C13.45001932 48.84761355 13.45001932 48.84761355 29 74 C29.87785156 74.433125 30.75570312 74.86625 31.66015625 75.3125 C34 77 34 77 34.48828125 79.91796875 C34.43027344 80.99691406 34.37226562 82.07585937 34.3125 83.1875 C34.26738281 84.27417969 34.22226562 85.36085938 34.17578125 86.48046875 C34.08876953 87.72763672 34.08876953 87.72763672 34 89 C34.83402344 88.54367187 35.66804687 88.08734375 36.52734375 87.6171875 C46.87399251 82.33127072 46.87399251 82.33127072 51.875 83.25 C57.1113956 85.01475211 61.51739328 88.26364531 64.1640625 93.1484375 C68.19292879 106.89176642 64.37388289 121.91977756 58.35546875 134.4140625 C53.65804155 142.96062305 48.5982136 149.96898518 39 153 C36.32266941 153.47607463 33.71446137 153.76188935 31 154 C30.7421875 155.29035156 30.484375 156.58070313 30.21875 157.91015625 C25.05491737 181.0255294 11.98055774 201.53232037 -3.69384766 218.87402344 C-4.2357373 219.48149414 -4.77762695 220.08896484 -5.3359375 220.71484375 C-5.82626465 221.25359131 -6.3165918 221.79233887 -6.82177734 222.34741211 C-9.1293831 225.58408499 -8.95767409 229.19066796 -9 233 C-9.0721875 234.216875 -9.144375 235.43375 -9.21875 236.6875 C-9.5823078 244.74347914 -8.80537244 251.6415668 -6.5 259.375 C-1.33912037 277.26943435 -4.38486596 291.95464071 -9.90534973 309.47422791 C-11.06206249 313.19989783 -12.17283165 316.93769163 -13.26928711 320.68139648 C-13.48513521 321.41690515 -13.70098331 322.15241381 -13.92337227 322.91021061 C-17.90857166 336.49776516 -21.86835886 350.09275884 -25.82675743 363.68813992 C-27.238159 368.53561177 -28.65056071 373.382787 -30.06542969 378.22924805 C-31.72098471 383.90069158 -33.37376296 389.57293689 -35.0234375 395.24609375 C-35.29044212 396.16429272 -35.55744675 397.08249168 -35.83254242 398.02851486 C-39.26918612 409.86186212 -42.58540867 421.71509879 -45.73103333 433.62953186 C-47.55608744 440.49480069 -49.58890786 447.26637674 -51.77287292 454.0252533 C-54.88267456 463.65985068 -57.64447566 473.39485245 -60.4375 483.125 C-61.00931338 485.10981841 -61.58125454 487.09460002 -62.15332031 489.0793457 C-65.52100151 500.77725596 -68.8578426 512.48326928 -72.08374023 524.22119141 C-72.32938721 525.11112793 -72.57503418 526.00106445 -72.828125 526.91796875 C-73.0334082 527.66844482 -73.23869141 528.4189209 -73.45019531 529.19213867 C-74 531 -74 531 -75 533 C-75.66 533 -76.32 533 -77 533 C-78.98174225 526.37576803 -80.96051667 519.7506538 -82.9375 513.125 C-83.24456879 512.096026 -83.55163757 511.067052 -83.86801147 510.00689697 C-87.7447726 497.00907087 -91.59336665 484.00337948 -95.3984375 470.984375 C-95.76636917 469.72595795 -96.13430084 468.46754089 -96.51338196 467.17098999 C-98.30344956 461.04618623 -100.09032154 454.92047277 -101.87280273 448.79345703 C-105.64797275 435.84488952 -109.54639896 422.94244493 -113.56776428 410.06822205 C-116.30036329 401.30211349 -118.96387561 392.51685803 -121.578125 383.71484375 C-121.76792812 383.07584892 -121.95773125 382.4368541 -122.15328598 381.77849579 C-124.14407413 375.07177748 -126.1250833 368.36217563 -128.10459042 361.65212059 C-128.93658073 358.83210886 -129.76901117 356.0122273 -130.60173607 353.1924324 C-131.01465908 351.7941734 -131.42745194 350.39587595 -131.84011269 348.99753952 C-134.53944865 339.85522339 -137.29996674 330.73453708 -140.12109375 321.62890625 C-141.02854101 318.67059515 -141.93402491 315.71169266 -142.83850098 312.75247192 C-143.39435142 310.95039361 -143.95794811 309.15068205 -144.53015137 307.35372925 C-149.12809356 292.9073706 -151.95019243 279.62906749 -145.5 265.1875 C-141.85893889 255.97327643 -141.06857032 247.98832883 -141.83642578 238.15722656 C-141.98960882 236.13703952 -142.05844351 234.11095496 -142.12109375 232.0859375 C-142.71909781 223.64028011 -145.39662209 219.32262965 -151.4921875 213.5 C-154.150691 210.84977844 -155.99001401 208.16423536 -158 205 C-158.74636719 203.94425781 -159.49273437 202.88851562 -160.26171875 201.80078125 C-167.87457184 190.94292607 -174.50727686 179.19587714 -178.47265625 166.48046875 C-181.36781073 157.17981926 -181.36781073 157.17981926 -188.8125 151.0625 C-190.37677734 150.30453125 -190.37677734 150.30453125 -191.97265625 149.53125 C-203.48689924 143.70727161 -208.78356671 131.45802829 -213.16015625 119.94921875 C-215.72391169 110.94626359 -216.82558322 98.40723886 -213.875 89.3125 C-211.53789647 85.18361709 -210.07547921 83.46066669 -206 81 C-200.11877615 79.80381888 -197.29317986 81.14960025 -192.25 84.3125 C-189.10124115 86.45815424 -186.0343511 88.69587825 -183 91 C-183.13019531 89.90300781 -183.26039063 88.80601562 -183.39453125 87.67578125 C-183.53526907 86.2214904 -183.67451354 84.76705449 -183.8125 83.3125 C-183.90208984 82.59126953 -183.99167969 81.87003906 -184.08398438 81.12695312 C-184.26953125 78.98828125 -184.26953125 78.98828125 -184 75 C-181.88671875 72.54296875 -181.88671875 72.54296875 -179 70 C-174.54785735 64.22284911 -171.36498948 58.01675898 -168.5625 51.3125 C-168.18270996 50.41184814 -167.80291992 49.51119629 -167.41162109 48.58325195 C-161.18983848 33.500577 -156.42896236 18.14681645 -154 2 C-149.89117457 3.27870526 -146.20213555 4.85766931 -142.375 6.8125 C-100.84556875 26.33324649 -49.08736621 14.91790606 -7.8972168 0.58862305 C-5.04801721 -0.29535845 -2.9425552 -0.53501004 0 0 Z " fill="#F9C7A2" transform="translate(528,293)"/>
<path d="M0 0 C506.88 0 1013.76 0 1536 0 C1536 8.25 1536 16.5 1536 25 C1034.07 25 532.14 25 15 25 C15 354.67 15 684.34 15 1024 C10.05 1024 5.1 1024 0 1024 C0 686.08 0 348.16 0 0 Z " fill="#5A83F3" transform="translate(0,0)"/>
<path d="M0 0 C1.57957792 1.33420659 3.14299846 2.68784055 4.6875 4.0625 C5.75097656 5.00222656 5.75097656 5.00222656 6.8359375 5.9609375 C14.07853682 12.75954605 21.21423602 21.81209576 21.8828125 32.0546875 C21.85960937 33.00601563 21.83640625 33.95734375 21.8125 34.9375 C21.79445313 35.90429688 21.77640625 36.87109375 21.7578125 37.8671875 C21.73460937 38.59164062 21.71140625 39.31609375 21.6875 40.0625 C22.55375 40.289375 23.42 40.51625 24.3125 40.75 C33.81554996 44.44563054 39.10725969 53.49597469 43.4375 62.3125 C54.11574586 87.82751652 48.26566194 117.40260769 44.03192139 143.82901001 C43.67322885 146.15504501 43.35696276 148.48461676 43.04345703 150.81713867 C42.81762049 152.35348377 42.59092464 153.88970284 42.36328125 155.42578125 C42.27672775 156.13360748 42.19017426 156.84143372 42.10099792 157.57070923 C41.50984816 161.33745052 40.87037571 162.89610967 38.0144043 165.49462891 C34.20142255 167.69370414 31.11504383 169.0625 26.6875 169.0625 C26.6875 165.1025 26.6875 161.1425 26.6875 157.0625 C25.0375 156.4025 23.3875 155.7425 21.6875 155.0625 C5.97158303 142.51293485 0.43540993 108.72117231 -1.72265625 89.83203125 C-2.38701062 86.71264551 -3.46851024 84.65144323 -5.3125 82.0625 C-11.864322 78.786589 -22.42163994 83.77342232 -28.875 85.8125 C-41.55801867 89.69823516 -54.27290203 92.66395843 -67.3125 95.0625 C-68.21693848 95.24796387 -69.12137695 95.43342773 -70.05322266 95.62451172 C-78.96999225 97.33288614 -87.7663337 97.45864688 -96.8125 97.4375 C-97.60664307 97.43762085 -98.40078613 97.4377417 -99.21899414 97.43786621 C-111.63854919 97.41096781 -123.32947766 96.55832228 -135.3125 93.0625 C-136.42367187 92.76214844 -137.53484375 92.46179688 -138.6796875 92.15234375 C-146.66361795 89.75716462 -153.96341425 85.93272859 -161.3125 82.0625 C-161.31507813 82.61292969 -161.31765625 83.16335938 -161.3203125 83.73046875 C-162.3288181 105.41333913 -172.95131189 137.96749718 -188.3125 154.0625 C-188.9725 154.3925 -189.6325 154.7225 -190.3125 155.0625 C-190.3125 160.3425 -190.3125 165.6225 -190.3125 171.0625 C-193.63735161 169.40007419 -196.72555671 167.65001024 -199.875 165.6875 C-200.82503906 165.10226562 -201.77507812 164.51703125 -202.75390625 163.9140625 C-209.81923009 158.80114113 -209.99363859 151.11336091 -211.3125 143.0625 C-211.52205322 141.83345947 -211.52205322 141.83345947 -211.73583984 140.57958984 C-218.12479953 102.15198259 -215.8190099 60.520493 -192.61035156 27.82568359 C-171.31613924 -1.10336107 -139.97982835 -17.89834281 -104.8125 -23.6875 C-69.84350995 -28.85276171 -28.43438636 -22.20756056 0 0 Z " fill="#372727" transform="translate(535.3125,212.9375)"/>
<path d="M0 0 C1.91824355 -0.00576172 1.91824355 -0.00576172 3.87523949 -0.01163983 C5.30261371 -0.01085954 6.72998788 -0.00998074 8.15736198 -0.00901413 C9.66733942 -0.01159699 11.17731618 -0.01460992 12.68729198 -0.01801753 C16.84751942 -0.02610036 21.00772962 -0.02787782 25.16796398 -0.028615 C29.65074757 -0.03046336 34.13352217 -0.03800967 38.61630058 -0.04475021 C48.42426445 -0.05834389 58.23222423 -0.06436007 68.04019594 -0.06876087 C74.16326579 -0.07152195 80.28633406 -0.07575909 86.40940285 -0.08026505 C103.35862758 -0.09245983 120.30785105 -0.10275823 137.25708008 -0.10614014 C138.34232399 -0.1063597 139.42756789 -0.10657927 140.54569798 -0.10680549 C141.63356046 -0.10702377 142.72142294 -0.10724204 143.84225094 -0.10746694 C146.0467244 -0.1079104 148.25119786 -0.10835697 150.45567131 -0.10880661 C151.54916963 -0.10902804 152.64266796 -0.10924947 153.76930259 -0.10947761 C171.48456655 -0.11342489 189.19978935 -0.13087586 206.91503741 -0.15416613 C225.09820702 -0.17787878 243.28135599 -0.19034197 261.46454132 -0.19150805 C271.67559796 -0.19242495 281.88660101 -0.19818067 292.0976429 -0.21632767 C300.79370226 -0.23172758 309.48969148 -0.23684981 318.18576188 -0.22858956 C322.62228434 -0.22468247 327.05866552 -0.2256155 331.49517059 -0.23964691 C335.55913317 -0.25238242 339.62284827 -0.25119142 343.68681048 -0.2390562 C345.1545721 -0.23709857 346.62235124 -0.24018069 348.09008826 -0.24890056 C357.75881279 -0.30269135 366.94093933 0.08987383 374.92442131 6.13142776 C381.71140599 12.95160063 382.13948134 17.98821443 382.23692131 27.38142776 C382.26592522 28.2979512 382.29492912 29.21447464 382.32481194 30.15877151 C382.3919451 37.39882508 380.85003493 42.42710605 376.35410881 48.11970901 C367.4784783 55.67960535 357.12145882 55.5710405 345.95254326 55.52583694 C344.44762096 55.5307326 342.94270243 55.53692552 341.43779022 55.54429483 C337.32385016 55.56063193 333.21010253 55.5583892 329.09614146 55.55291986 C324.65087726 55.55024196 320.20566346 55.56479571 315.76041985 55.57701492 C307.05980656 55.59803894 298.35925995 55.60261152 289.65862425 55.60082704 C282.58421368 55.5995179 275.50982385 55.6033313 268.43541718 55.61075211 C266.39535215 55.61285137 264.35528712 55.61494897 262.31522208 55.61704493 C260.79198412 55.61861022 260.79198412 55.61861022 259.23797367 55.62020713 C240.0449657 55.63909725 220.85199597 55.63806306 201.65898255 55.6312378 C184.11495452 55.62566312 166.57107255 55.64648683 149.02707865 55.67959827 C130.99733887 55.71336143 112.967669 55.72850034 94.93789703 55.72388124 C84.82180109 55.72163923 74.70584014 55.72684053 64.58977127 55.75177383 C55.97739188 55.77282084 47.36522152 55.77634522 38.75283345 55.75747424 C34.36226072 55.74833741 29.97207737 55.7471101 25.58153534 55.7678299 C21.55510652 55.78662056 17.52938378 55.78194691 13.50298116 55.75928408 C12.05352833 55.75511861 10.6040205 55.75922865 9.15462597 55.77288002 C-1.6685547 55.8678037 -11.10828062 54.18919046 -20.20057869 48.00642776 C-25.87152941 39.31096999 -26.2817447 28.3382697 -24.60682869 18.33064651 C-23.12690719 12.52547825 -20.71838429 7.99863707 -16.07557869 4.13142776 C-10.92535551 1.16813587 -5.88456083 0.0066151 0 0 Z " fill="#E3F7FE" transform="translate(872.0755786895752,272.8685722351074)"/>
<path d="M0 0 C1.69317611 -0.00874829 1.69317611 -0.00874829 3.4205578 -0.01767331 C4.66090789 -0.01389399 5.90125799 -0.01011467 7.17919445 -0.00622082 C8.4966606 -0.01004636 9.81412675 -0.01387191 11.17151612 -0.01781338 C14.83170259 -0.02812203 18.49179142 -0.02590429 22.151986 -0.02163279 C26.09824588 -0.01917071 30.04448193 -0.02817334 33.99073315 -0.03567028 C41.72360002 -0.04843435 49.45643221 -0.0502088 57.18930785 -0.04787002 C63.4744354 -0.04608839 69.7595524 -0.04783317 76.04467869 -0.05209446 C76.93855735 -0.05268965 77.83243601 -0.05328484 78.7534019 -0.05389806 C80.56922665 -0.05510979 82.38505139 -0.05632393 84.20087614 -0.05754044 C101.23906849 -0.06842282 118.27724107 -0.06625034 135.31543454 -0.06015559 C150.90450479 -0.05498737 166.49351253 -0.06623812 182.08257041 -0.08525381 C198.08484237 -0.10462404 214.08708476 -0.11288955 230.08936852 -0.10913056 C239.07520617 -0.10721708 248.06099064 -0.10972028 257.04681873 -0.1238451 C264.69768637 -0.13574958 272.34846808 -0.13717438 279.99933688 -0.12505493 C283.90297638 -0.1191593 287.80645867 -0.11808556 291.71008778 -0.13005733 C295.28479557 -0.14089291 298.85921446 -0.13784072 302.4339086 -0.12379565 C304.33731627 -0.11988676 306.24073665 -0.13071494 308.14411432 -0.14209253 C316.80240576 -0.08719551 323.04008877 0.9905816 329.48295116 7.25447559 C333.2063382 12.5185745 333.27659509 18.03759818 332.48295116 24.25447559 C330.81669747 29.63844586 328.23604262 33.12744174 323.48295116 36.25447559 C320.13854003 37.92668116 316.37318529 37.39239968 312.69559765 37.38387012 C311.30045783 37.38644762 311.30045783 37.38644762 309.87713337 37.38907719 C306.70275391 37.39347592 303.52842534 37.39041134 300.35404491 37.38728809 C298.03665683 37.38847971 295.71926889 37.39000572 293.40188122 37.39183521 C286.25925703 37.3953623 279.11665409 37.38942381 271.97403526 37.38160992 C269.24613532 37.37877477 266.518235 37.37661339 263.79033446 37.37443733 C245.94898507 37.35994583 228.10769047 37.32791799 210.26637936 37.28892994 C200.50220867 37.26779122 190.73804064 37.24955864 180.97385693 37.2355547 C155.98172627 37.19947017 130.9897239 37.14969713 105.99769783 37.06735897 C94.51653209 37.02983314 83.03542947 36.9987415 71.55420971 36.98402882 C61.6475725 36.97121267 51.7410917 36.94444202 41.83454365 36.90006316 C36.70415691 36.87749017 31.57396145 36.86153792 26.44352055 36.86255741 C21.69882374 36.86329692 16.95456379 36.84558546 12.20998013 36.81329989 C10.48237381 36.80479601 8.75471859 36.80306636 7.02710044 36.80867505 C4.67551424 36.81530112 2.32533201 36.79744192 -0.02611256 36.77345753 C-1.33657614 36.76977036 -2.64703972 36.76608318 -3.99721432 36.76228428 C-9.50711282 35.96736784 -12.52523975 33.56795249 -15.82954884 29.19197559 C-18.72752318 24.14735359 -19.0290009 19.9428319 -18.51704884 14.25447559 C-16.54151442 7.66936088 -13.44204948 4.63680958 -7.67045814 1.13366157 C-4.98999195 0.03929076 -2.8949874 0.00257132 0 0 Z " fill="#E4F7FE" transform="translate(865.5170488357544,366.7455244064331)"/>
<path d="M0 0 C3.96972834 3.86680946 7.63477419 7.92672516 11.25 12.125 C11.82137695 12.78588623 12.39275391 13.44677246 12.98144531 14.12768555 C17.03423988 18.83259504 20.97399153 23.6201379 24.8828125 28.4453125 C27.78450422 31.9466158 30.82587725 35.30970714 33.88671875 38.671875 C35.76337885 40.73932309 37.60744573 42.82886604 39.4375 44.9375 C43.09420679 49.13719806 46.85224001 53.24211011 50.60546875 57.35546875 C52.53535094 59.48683945 54.43422944 61.63594329 56.3125 63.8125 C61.70541185 70.02607235 67.3848988 75.98804203 73 82 C76.71563534 80.76145489 77.59458591 79.30982822 80 76.25 C80.79664063 75.25226563 81.59328125 74.25453125 82.4140625 73.2265625 C82.8359082 72.69708008 83.25775391 72.16759766 83.69238281 71.62207031 C85.87319776 68.91681742 88.12385009 66.27176288 90.375 63.625 C90.83438965 63.08343262 91.2937793 62.54186523 91.76708984 61.98388672 C93.64870956 59.76609997 95.53243929 57.55010936 97.41601562 55.33398438 C102.90573114 48.87236901 108.34514608 42.37901078 113.6953125 35.80078125 C116.22033261 32.73223987 118.79492943 29.70967405 121.375 26.6875 C125.78839483 21.50950047 130.03693 16.21894426 134.20849609 10.84448242 C137.06619502 7.16447492 139.99963655 3.56494797 143 0 C144.18186525 3.44276006 143.80562704 5.4954816 142.70703125 8.9296875 C142.40603516 9.89132812 142.10503906 10.85296875 141.79492188 11.84375 C141.47072266 12.8440625 141.14652344 13.844375 140.8125 14.875 C140.19262567 16.83029071 139.57415349 18.78602644 138.95703125 20.7421875 C138.65144287 21.70802765 138.34585449 22.6738678 138.03100586 23.66897583 C137.05231542 26.83097678 136.12958286 30.00211373 135.22851562 33.18701172 C132.90914778 41.33950204 130.53664862 49.47609213 128.16113853 57.61237335 C126.80707403 62.25155477 125.45550721 66.89146414 124.10351562 71.53125 C122.40028756 77.37607313 120.69636207 83.22068949 118.98950195 89.06445312 C117.32740671 94.75568653 115.6681102 100.44772891 114.01171875 106.140625 C113.74321987 107.06330673 113.47472099 107.98598846 113.19808578 108.93663025 C109.74902612 120.80352728 106.41998312 132.68991331 103.26580811 144.63900757 C101.44202188 151.50121909 99.41006964 158.26954397 97.22711182 165.02529907 C94.11731698 174.65988172 91.3555199 184.39486792 88.5625 194.125 C87.99068662 196.10981841 87.41874546 198.09460002 86.84667969 200.0793457 C83.47899849 211.77725596 80.1421574 223.48326928 76.91625977 235.22119141 C76.67061279 236.11112793 76.42496582 237.00106445 76.171875 237.91796875 C75.9665918 238.66844482 75.76130859 239.4189209 75.54980469 240.19213867 C75 242 75 242 74 244 C73.34 244 72.68 244 72 244 C70.01825775 237.37576803 68.03948333 230.7506538 66.0625 224.125 C65.75543121 223.096026 65.44836243 222.067052 65.13198853 221.00689697 C61.2552274 208.00907087 57.40663335 195.00337948 53.6015625 181.984375 C53.23363083 180.72595795 52.86569916 179.46754089 52.48661804 178.17098999 C50.69655044 172.04618623 48.90967846 165.92047277 47.12719727 159.79345703 C43.35202725 146.84488952 39.45360104 133.94244493 35.43223572 121.06822205 C31.27689805 107.73800382 27.30750211 94.3537619 23.3492775 80.96408844 C22.3240487 77.49705216 21.29702962 74.03054614 20.27026367 70.56396484 C19.02843238 66.3707203 17.78692131 62.17738163 16.54655457 57.98370361 C14.32072659 50.45831696 12.09050344 42.93426932 9.8531189 35.41230774 C8.62106948 31.26979582 7.3910709 27.12667684 6.16149902 22.98342896 C5.59849203 21.08788439 5.03461781 19.19259718 4.46984863 17.2975769 C3.70265824 14.72255658 2.9387806 12.1465772 2.17578125 9.5703125 C1.95177139 8.82146286 1.72776154 8.07261322 1.4969635 7.30107117 C0 2.22826097 0 2.22826097 0 0 Z " fill="#6DDAD0" transform="translate(379,582)"/>
<path d="M0 0 C-2.79535672 15.55836703 -2.79535672 15.55836703 -8.4609375 19.875 C-10.36705569 21.04478212 -12.29211961 22.18422136 -14.234375 23.29296875 C-17.58820849 25.36306089 -20.04001368 27.80001522 -22.66015625 30.71484375 C-24 32 -24 32 -26 32 C-26.25523437 32.55945313 -26.51046875 33.11890625 -26.7734375 33.6953125 C-28.16586068 36.31164905 -29.82715562 38.51846295 -31.625 40.875 C-53.53665192 71.04321641 -56.45330962 110.73733594 -52 147 C-51.23816406 147.20753906 -50.47632813 147.41507813 -49.69140625 147.62890625 C-37.30877102 151.32360016 -27.83858707 158.7711834 -21.23828125 169.99609375 C-17.110856 178.0011001 -14.79686665 185.64786381 -13.890625 194.578125 C-13.80653381 195.39758606 -13.72244263 196.21704712 -13.63580322 197.06134033 C-12.79297596 206.03295625 -12.69746279 214.98794401 -12.73925781 223.99316406 C-12.75015557 226.7899257 -12.73919108 229.58606792 -12.7265625 232.3828125 C-12.72788157 234.1875014 -12.73043871 235.99218991 -12.734375 237.796875 C-12.73032654 238.6198407 -12.72627808 239.4428064 -12.72210693 240.29071045 C-12.76206742 245.22857486 -13.30918237 249.34315038 -15 254 C-19.29798909 258.15934428 -23.85239383 258.28084292 -29.5546875 258.22265625 C-32.71713392 257.93470186 -34.58034071 257.04158753 -37 255 C-39.66773607 250.9983959 -39.71478813 247.70568852 -39 243 C-37.12379387 240.49839182 -35.76108697 239.38054348 -33 238 C-30.3276379 237.86584528 -27.67749512 237.95681459 -25 238 C-24.40876863 202.00387535 -24.40876863 202.00387535 -40 171 C-46.99306176 164.5713389 -53.82368297 162.47140042 -63.296875 162.69140625 C-70.86739282 163.55567057 -76.95895798 168.53616091 -82 174 C-94.66492999 191.46886895 -94.46453265 216.37415269 -95 237 C-94.38584229 236.98549805 -93.77168457 236.97099609 -93.13891602 236.95605469 C-92.33123779 236.94477539 -91.52355957 236.93349609 -90.69140625 236.921875 C-89.89162354 236.90737305 -89.09184082 236.89287109 -88.26782227 236.87792969 C-86 237 -86 237 -82.9375 238.25 C-80.19415989 242.14377306 -80.43942884 245.45692693 -80.43359375 250.125 C-81.12583507 253.63872145 -82.21255066 254.81455878 -85 257 C-90.22983896 258.74327965 -96.80795208 259.17345762 -102.05078125 257.24609375 C-105.02651069 255.36318803 -106.92115875 253.33460022 -108 250 C-113.63490685 224.80865171 -109.57668294 189.15555999 -96.14599609 166.74365234 C-90.77810413 158.57631438 -83.0366009 152.62266101 -74 149 C-72.01027456 148.60999513 -70.01063847 148.26161816 -68 148 C-68.0721875 146.84886719 -68.144375 145.69773437 -68.21875 144.51171875 C-68.90566891 132.99299305 -69.20388037 121.53723037 -69 110 C-68.99274902 109.2481543 -68.98549805 108.49630859 -68.97802734 107.72167969 C-68.74291034 89.27097278 -65.90236494 69.80442664 -58 53 C-57.57203125 52.02804687 -57.1440625 51.05609375 -56.703125 50.0546875 C-46.35926889 27.79796339 -29.02315374 11.14282291 -6.77734375 0.99609375 C-4 0 -4 0 0 0 Z " fill="#303348" transform="translate(387,545)"/>
<path d="M0 0 C4.83067356 0.59799441 8.51837492 2.64073149 12.6875 5 C13.39430908 5.39864258 14.10111816 5.79728516 14.8293457 6.20800781 C20.93549261 9.76173932 26.02734669 13.97801481 31 19 C31.886875 19.845625 32.77375 20.69125 33.6875 21.5625 C34.450625 22.366875 35.21375 23.17125 36 24 C36.50660156 24.52335938 37.01320313 25.04671875 37.53515625 25.5859375 C66.03506533 56.3580489 70.26584437 101.09312165 69 141 C67.9047548 163.1001802 67.9047548 163.1001802 66 172 C66.66 172.185625 67.32 172.37125 68 172.5625 C76.28036414 176.53017448 80.60106478 182.65583286 84 191 C86.83142427 199.49427282 84.995328 207.34393185 81.484375 215.30859375 C78.92419243 219.95060899 76.06000906 223.28529232 71.625 226.1875 C70.89539063 226.67605469 70.16578125 227.16460938 69.4140625 227.66796875 C61.96393774 231.77879811 54.31783339 231.92605768 46 231 C36.57741297 228.12178817 30.04531816 222.41765728 24.84765625 214.171875 C21.5328744 207.1451485 21.85306771 197.69696081 23.65625 190.3125 C27.03243877 181.93023821 33.70038423 174.66034336 42 171 C44.65320124 170.25030677 47.31220991 169.62219958 50 169 C55.92082182 127.23930991 56.68093124 76.50514211 30.29956055 40.82958984 C24.36540789 33.04596147 18.41673643 26.60987241 10.11328125 21.359375 C9.41589844 20.91078125 8.71851563 20.4621875 8 20 C7.29746094 19.58105469 6.59492187 19.16210938 5.87109375 18.73046875 C3.25674116 16.31260195 2.72203476 13.96076439 1.75 10.5625 C1.41484375 9.42941406 1.0796875 8.29632812 0.734375 7.12890625 C0 4 0 4 0 0 Z " fill="#393638" transform="translate(519,544)"/>
<path d="M0 0 C11.9680008 0.20914953 22.91945356 4.5198813 31.74609375 12.52734375 C40.37953985 21.65767883 42.8866013 31.13539179 42.79467773 43.37255859 C42.43191171 54.63813495 39.42194544 64.13736521 31.375 72.25 C19.89617921 82.69806953 7.63836712 83.98504841 -7.24511719 83.42919922 C-12.19886798 83.05619418 -16.28958547 81.59682641 -20.625 79.25 C-21.81802734 78.61384766 -21.81802734 78.61384766 -23.03515625 77.96484375 C-32.89850023 72.0534239 -38.44652557 62.93465644 -41.20703125 51.9296875 C-43.30100487 38.50477253 -41.38308429 26.50131472 -33.37109375 15.3125 C-26.53199125 7.23409705 -17.11726184 2.65665673 -6.875 0.4375 C-4.58250987 0.30524095 -2.29086065 0.15799039 0 0 Z " fill="#2D4288" transform="translate(1260.625,733.75)"/>
<path d="M0 0 C9.456375 4.87973197 17.3791515 12.7999124 21.5546875 22.671875 C24.35925398 34.06387512 24.41379036 48.91494466 18.4375 59.2578125 C12.73897307 68.56923836 4.16750241 75.94153343 -6.48828125 78.84765625 C-17.32585484 80.99067928 -30.83963776 80.70973359 -40.5625 75.2578125 C-41.43003906 74.77183594 -42.29757812 74.28585937 -43.19140625 73.78515625 C-52.81927914 67.71572222 -57.94304646 59.49929705 -60.90625 48.6171875 C-63.10081468 37.3831064 -62.02282008 25.25894664 -55.8125 15.4453125 C-54.76140122 14.02504732 -53.67848989 12.62767686 -52.5625 11.2578125 C-52.05976562 10.63132812 -51.55703125 10.00484375 -51.0390625 9.359375 C-38.81026537 -4.30108619 -16.4729847 -6.69215003 0 0 Z " fill="#2D4287" transform="translate(1012.5625,737.7421875)"/>
<path d="M0 0 C6.703125 -0.061875 13.40625 -0.12375 20.3125 -0.1875 C22.40505127 -0.21481201 24.49760254 -0.24212402 26.65356445 -0.27026367 C41.11292919 -0.38173249 53.34381434 0.74142016 64.78125 10.5234375 C73.33813398 19.47323962 74.68880186 30.12122517 74.52124023 41.98339844 C74.06190683 54.1750905 70.30510481 62.97090671 61.44921875 71.4921875 C44.43768502 85.08452959 19.33208127 81 0 81 C0 54.27 0 27.54 0 0 Z " fill="#2D4286" transform="translate(863,736)"/>
<path d="M0 0 C6.703125 -0.0825 13.40625 -0.165 20.3125 -0.25 C22.40505127 -0.28641602 24.49760254 -0.32283203 26.65356445 -0.36035156 C47.91100007 -0.57936787 47.91100007 -0.57936787 55.20629883 5.98535156 C61.17837505 12.26612514 62.39810126 17.73740253 62.36791992 26.32763672 C62.18335367 33.48110971 60.11317871 37.42991778 55.6875 42.8125 C52.54230625 45.37254142 49.78526867 46.58980187 46 48 C47.43566341 51.90375414 49.27620873 55.30384458 51.44140625 58.8515625 C52.44010742 60.49898437 52.44010742 60.49898437 53.45898438 62.1796875 C54.1597962 63.32834475 54.86097193 64.47678005 55.5625 65.625 C56.9423154 67.88593288 58.31788428 70.14928331 59.69140625 72.4140625 C60.30185791 73.4138916 60.91230957 74.4137207 61.54125977 75.44384766 C63 78 63 78 64 81 C56.41 81 48.82 81 41 81 C39.92621094 78.84597656 38.85242187 76.69195313 37.74609375 74.47265625 C36.68637649 72.39107294 35.61795241 70.31418722 34.54858398 68.23754883 C33.81116518 66.79398388 33.08286233 65.3457238 32.36401367 63.89282227 C31.3276319 61.80217774 30.25939066 59.73073696 29.18359375 57.66015625 C28.86974228 57.00910416 28.55589081 56.35805206 28.23252869 55.68727112 C27.19015894 53.59975274 27.19015894 53.59975274 25 51 C21.535 50.505 21.535 50.505 18 50 C18 59.9 18 69.8 18 80 C12.06 80 6.12 80 0 80 C0 53.6 0 27.2 0 0 Z " fill="#2C4187" transform="translate(1325,736)"/>
<path d="M0 0 C1.39617554 0.00241699 1.39617554 0.00241699 2.82055664 0.00488281 C9.75801871 0.12860362 15.57102179 1.04160386 21.75 4.375 C22.801875 4.931875 23.85375 5.48875 24.9375 6.0625 C31.09497033 11.12530894 36.33587908 16.67998957 38.75 24.375 C38.75 25.695 38.75 27.015 38.75 28.375 C36.52149723 28.71274332 34.29216533 29.0450187 32.0625 29.375 C30.82113281 29.560625 29.57976562 29.74625 28.30078125 29.9375 C22.14258432 30.69626574 22.14258432 30.69626574 19.75 30.375 C18.30078125 28.765625 18.30078125 28.765625 17.0625 26.625 C13.54059587 21.57962589 9.74218192 19.59703429 3.75 18.375 C-3.67212187 17.82342119 -9.43695194 19.12639856 -15.40625 23.625 C-20.42243034 28.38612033 -22.33758524 34.21258982 -22.625 41 C-22.54755887 47.55345591 -20.15856366 53.1986402 -15.72265625 58.04296875 C-9.58117645 63.37183545 -4.70201866 63.81552004 3.2578125 63.69140625 C9.37524579 63.13714216 13.04787243 61.20806046 17.1875 56.75 C18.74293337 54.48745166 18.74293337 54.48745166 19.75 52.375 C26.35 52.375 32.95 52.375 39.75 52.375 C37.09663335 62.98846658 33.99363087 70.97292207 24.3203125 76.8515625 C12.44278148 83.02499048 -0.59512594 84.28857864 -13.71875 81.6875 C-23.61771212 78.3507712 -32.41855998 71.29785112 -37.50390625 62.109375 C-38.52613911 59.89139373 -39.41661577 57.66994753 -40.25 55.375 C-40.6625 54.281875 -41.075 53.18875 -41.5 52.0625 C-44.03783161 39.58482791 -42.01100963 26.28711589 -34.98046875 15.59375 C-26.06199714 4.15877963 -14.09477489 -0.02525719 0 0 Z " fill="#2E4287" transform="translate(1091.25,734.625)"/>
<path d="M0 0 C4.83067356 0.59799441 8.51837492 2.64073149 12.6875 5 C13.39430908 5.39864258 14.10111816 5.79728516 14.8293457 6.20800781 C20.93549261 9.76173932 26.02734669 13.97801481 31 19 C31.886875 19.845625 32.77375 20.69125 33.6875 21.5625 C34.450625 22.366875 35.21375 23.17125 36 24 C36.50660156 24.52335938 37.01320313 25.04671875 37.53515625 25.5859375 C66.05708118 56.38182 70.21830796 101.07272541 69 141 C68.77964025 145.9020708 68.48225016 150.79358667 68.125 155.6875 C68.00753418 157.33492187 68.00753418 157.33492187 67.88769531 159.015625 C67.80358398 160.02496094 67.71947266 161.03429687 67.6328125 162.07421875 C67.55949707 162.95682373 67.48618164 163.83942871 67.41064453 164.7487793 C67 167 67 167 65 170 C60.71 169.67 56.42 169.34 52 169 C51.97254875 166.54158803 51.95294835 164.08349467 51.9375 161.625 C51.92493164 160.60599609 51.92493164 160.60599609 51.91210938 159.56640625 C51.89436379 155.76885015 52.06502869 152.07536069 52.4921875 148.30078125 C56.48448091 111.28585785 51.31274553 67.45930749 27.69458008 37.46728516 C22.4098039 30.93188242 17.22606263 25.85697744 10.11328125 21.359375 C9.41589844 20.91078125 8.71851563 20.4621875 8 20 C7.29746094 19.58105469 6.59492187 19.16210938 5.87109375 18.73046875 C3.25674116 16.31260195 2.72203476 13.96076439 1.75 10.5625 C1.41484375 9.42941406 1.0796875 8.29632812 0.734375 7.12890625 C0 4 0 4 0 0 Z " fill="#2E3349" transform="translate(519,544)"/>
<path d="M0 0 C20.79 0 41.58 0 63 0 C63 5.28 63 10.56 63 16 C55.74 16 48.48 16 41 16 C41 37.45 41 58.9 41 81 C34.73 81 28.46 81 22 81 C22 59.55 22 38.1 22 16 C14.74 16 7.48 16 0 16 C0 10.72 0 5.44 0 0 Z " fill="#2D4288" transform="translate(1144,736)"/>
<path d="M0 0 C0.94875 0.825 1.8975 1.65 2.875 2.5 C4.24876948 3.66811537 5.62388863 4.83464443 7 6 C7.72574219 6.62648438 8.45148438 7.25296875 9.19921875 7.8984375 C31.23277688 26.3265043 54.83897394 30.53880916 83 29 C87.94431051 28.38112552 92.40812824 26.92012244 97 25 C97.98871094 24.649375 98.97742188 24.29875 99.99609375 23.9375 C111.87328003 19.48934701 122.08024785 12.36224308 131.20703125 3.65234375 C133 2 133 2 134 2 C134.41935484 13.9516129 134.41935484 13.9516129 130.4375 18.96875 C116.03156532 34.07174604 95.16868764 43.52944946 74.3203125 44.203125 C56.22138437 44.47990961 41.2012377 42.27149849 25 34 C24.08734375 33.53722656 23.1746875 33.07445312 22.234375 32.59765625 C19.70598225 31.19072803 17.36813754 29.66320357 15 28 C14.18474854 27.4438501 14.18474854 27.4438501 13.35302734 26.87646484 C2.96783803 19.63847537 2.96783803 19.63847537 0.73046875 13.5390625 C0.22504464 10.30289372 -0.02244143 7.27195987 0 4 C0 2.68 0 1.36 0 0 Z " fill="#EAAD83" transform="translate(385,516)"/>
<path d="M0 0 C4.80405793 3.22377572 9.04017017 7.59964952 10.78125 13.1953125 C11.5826522 20.45650214 12.08029816 28.13917337 8.10546875 34.5546875 C3.15833205 40.68388341 -2.59944645 44.39677989 -10.4453125 45.51171875 C-17.53867639 45.88954397 -22.14958812 43.14841551 -27.96875 39.4453125 C-32.90846323 34.50559927 -35.29157632 27.93312035 -35.53125 21.0078125 C-35.44417669 14.40112527 -33.01285226 9.2585301 -28.71875 4.3203125 C-27.48125 3.2684375 -27.48125 3.2684375 -26.21875 2.1953125 C-25.6 1.6384375 -24.98125 1.0815625 -24.34375 0.5078125 C-16.728699 -4.19560135 -7.67103719 -4.3530092 0 0 Z " fill="#F4F9FD" transform="translate(1005.21875,754.8046875)"/>
<path d="M0 0 C6.313427 3.50415052 10.4969305 8.03684318 12.75 14.9375 C13.83273913 23.6336048 12.85996463 30.72422539 7.75 37.9375 C3.53110092 42.86945244 -2.1245408 45.25862697 -8.41015625 46.29296875 C-14.84574622 46.71292788 -20.02703853 44.6263828 -25.25 40.9375 C-30.49270498 35.57588831 -33.51572351 29.81827015 -33.6875 22.25 C-33.55751259 15.21334815 -31.48332686 9.6327307 -26.828125 4.3125 C-19.00851346 -2.75037494 -9.46486648 -4.31256322 0 0 Z " fill="#F4F9FD" transform="translate(1271.25,754.0625)"/>
<path d="M0 0 C23.01913876 0 23.01913876 0 29 5 C35.17875111 11.56173155 36.31579011 16.79869174 36.20703125 25.70703125 C35.75366741 32.91808248 33.35388271 37.60894268 27.984375 42.45703125 C18.96188746 49.47254814 12.46356108 48 0 48 C0 32.16 0 16.32 0 0 Z " fill="#F3F8FC" transform="translate(882,752)"/>
<path d="M0 0 C0 0.66 0 1.32 0 2 C-0.79664063 2.24234375 -1.59328125 2.4846875 -2.4140625 2.734375 C-3.47367188 3.06953125 -4.53328125 3.4046875 -5.625 3.75 C-6.66914063 4.07484375 -7.71328125 4.3996875 -8.7890625 4.734375 C-17.97494719 8.35508867 -27.4295402 16.19248781 -32 25 C-32.7098996 26.6487161 -33.37809679 28.31611799 -34 30 C-34.30421875 30.81339844 -34.6084375 31.62679687 -34.921875 32.46484375 C-37.6106142 40.49301316 -38.33197824 48.35883928 -37.52392578 56.76831055 C-36.85118906 64.97918745 -36.85511695 73.16385191 -36.8671875 81.39453125 C-36.8665119 83.03830479 -36.86553976 84.68207824 -36.86428833 86.32585144 C-36.86282546 89.74548305 -36.86492147 93.16508829 -36.86962891 96.5847168 C-36.87534809 100.94988234 -36.87202442 105.31498668 -36.86605644 109.68015003 C-36.86243185 113.06461544 -36.86359775 116.44906648 -36.86618423 119.83353233 C-36.86684708 121.44295954 -36.86604777 123.0523881 -36.86370468 124.66181374 C-36.86114424 126.91235411 -36.86506511 129.16279691 -36.87060547 131.41333008 C-36.87179886 133.32641716 -36.87179886 133.32641716 -36.87301636 135.27815247 C-37 139 -37 139 -37.51529026 142.35762024 C-38.30792365 148.55337221 -38.00898367 154.76887803 -37.88233948 160.99992371 C-37.85803917 162.42807757 -37.83443354 163.85624339 -37.81145799 165.28441918 C-37.76107362 168.38927328 -37.70817927 171.49406967 -37.65348804 174.59885085 C-37.50190842 183.31853605 -37.38029619 192.03865635 -37.26443481 200.75888062 C-37.25206731 201.68947145 -37.2396998 202.62006228 -37.22695752 203.57885284 C-36.92672966 226.67106612 -36.89036643 249.76280583 -36.88647461 272.85668945 C-36.88621791 273.92403198 -36.88596121 274.9913745 -36.88569672 276.09106074 C-36.88279891 289.57766396 -36.88796099 303.06425737 -36.89646318 316.55085771 C-36.90379824 328.5295829 -36.90512869 340.50830699 -36.90625793 352.4870341 C-36.90841901 373.82981837 -36.91499686 395.17259871 -36.92456055 416.51538086 C-36.9338125 437.1846515 -36.94085466 457.85392105 -36.94506836 478.52319336 C-36.94533108 479.80828072 -36.94559381 481.09336808 -36.94586449 482.41739748 C-36.94717001 488.86759776 -36.9484336 495.31779804 -36.94967639 501.76799834 C-36.95995679 554.84533494 -36.97749203 607.92266727 -37 661 C-37.99 661 -38.98 661 -40 661 C-40.06847623 601.96515995 -40.13215834 542.93031578 -40.16937256 483.89544678 C-40.16992479 483.02165645 -40.17047702 482.14786612 -40.17104598 481.2475973 C-40.18301772 462.25759672 -40.19409843 443.26759573 -40.20426132 424.2775941 C-40.20925065 414.9648478 -40.21443686 405.65210161 -40.21972656 396.33935547 C-40.2202496 395.41262726 -40.22077263 394.48589906 -40.22131152 393.53108818 C-40.23835569 363.49532577 -40.26840001 333.45959346 -40.30518888 303.42384929 C-40.3429268 272.55718871 -40.36754353 241.6905448 -40.37565996 210.82386154 C-40.37681257 206.4637587 -40.37811512 202.10365593 -40.37950897 197.74355316 C-40.37977866 196.88542579 -40.38004836 196.02729842 -40.38032622 195.14316718 C-40.38505235 181.33191193 -40.4036026 167.52070821 -40.42732814 153.70947397 C-40.45088742 139.82316411 -40.45986933 125.93690532 -40.45400551 112.05057618 C-40.45096415 103.80131647 -40.45906552 95.55224373 -40.48319017 87.30301779 C-40.49997908 81.14091773 -40.49583258 74.97899762 -40.48359558 68.81689057 C-40.48190488 66.32543678 -40.48698459 63.83396723 -40.49953273 61.34254447 C-40.58998506 42.27409396 -39.0667925 26.38649233 -25 12 C-17.87196161 6.37910318 -9.36839616 0 0 0 Z " fill="#6BDDFB" transform="translate(213,128)"/>
<path d="M0 0 C0.66 0 1.32 0 2 0 C2.06847964 59.11606259 2.13216131 118.23212931 2.16937256 177.34822083 C2.16992479 178.22328283 2.17047702 179.09834484 2.17104598 179.99992388 C2.18301786 199.01778971 2.19409855 218.03565596 2.20426132 237.05352284 C2.20925063 246.38000165 2.21443685 255.70648034 2.21972656 265.03295898 C2.2202496 265.96105127 2.22077263 266.88914356 2.22131152 267.84535986 C2.23835417 297.92263428 2.26839737 327.99987863 2.30518888 358.07713484 C2.34293107 388.98774108 2.36754452 419.89833068 2.37565996 450.80895957 C2.37681256 455.17576895 2.37811511 459.54257828 2.37950897 463.90938759 C2.37977866 464.76883069 2.38004836 465.62827379 2.38032622 466.51376062 C2.38505144 480.34341502 2.40359921 494.17301793 2.42732814 508.00265134 C2.45089351 521.90914222 2.45986781 535.81558209 2.45400551 549.72209223 C2.4509653 557.98225053 2.45905521 566.24222204 2.48319017 574.50234659 C2.4999902 580.67433614 2.49582656 586.84614617 2.48359558 593.01814274 C2.48190604 595.51230609 2.48697566 598.00648522 2.49953273 600.50061753 C2.57114725 615.604583 1.9805564 627.35418184 -5 641 C-5.8284454 638.64050361 -6.17085948 637.44423466 -5.2578125 635.0703125 C-4.69707031 634.10738281 -4.69707031 634.10738281 -4.125 633.125 C-0.41020043 626.70852801 -0.85385288 619.72924445 -0.8613348 612.53209114 C-0.85849258 611.47331127 -0.85565036 610.4145314 -0.85272202 609.32366729 C-0.84436699 605.75809827 -0.84310617 602.19256171 -0.84178162 598.62698364 C-0.83721682 596.0520539 -0.83221692 593.4771249 -0.82681805 590.90219676 C-0.81576386 585.29476102 -0.80839037 579.68732978 -0.80341911 574.07988548 C-0.79601039 565.74181133 -0.7829266 557.40375285 -0.76867336 549.06568793 C-0.74485863 535.03998288 -0.72565621 521.01427504 -0.70907402 506.98855972 C-0.69263834 493.09948469 -0.67415783 479.21041487 -0.65294075 465.32134628 C-0.65096434 464.02642387 -0.65096434 464.02642387 -0.648948 462.70534142 C-0.642246 458.32124714 -0.63550742 453.93715293 -0.62875474 449.55305873 C-0.5809799 418.49305983 -0.53779826 387.43305606 -0.49731445 356.37304688 C-0.45797222 326.19693651 -0.41655155 296.02083017 -0.37231445 265.84472656 C-0.37095192 264.91471889 -0.36958939 263.98471121 -0.36818558 263.02652148 C-0.35450031 253.68708099 -0.34077276 244.34764056 -0.32701423 235.00820018 C-0.29898699 215.98234499 -0.27124198 196.9564894 -0.2436676 177.93063354 C-0.2417653 176.61843976 -0.2417653 176.61843976 -0.23982458 175.279737 C-0.15515543 116.85316454 -0.07708615 58.4265829 0 0 Z " fill="#73A2F9" transform="translate(727,169)"/>
<path d="M0 0 C4.34545632 2.01811455 7.20074267 4.17034606 9.8359375 8.28125 C11.5714287 13.4877236 11.49938133 18.43059089 9.6484375 23.59375 C6.9533819 27.58986692 3.4161029 30.66472103 -1.1640625 32.28125 C-7.17127466 32.97438987 -11.24556876 31.553386 -16.1640625 28.28125 C-19.71354201 25.32335041 -20.92683152 23.96239648 -21.5703125 19.40234375 C-21.7374835 13.7254952 -21.56220817 9.99068012 -18.1640625 5.28125 C-12.8257898 -0.09777287 -7.44873341 -2.47394756 0 0 Z " fill="#B7B3AC" transform="translate(578.1640625,728.71875)"/>
<path d="M0 0 C3.196875 -0.12375 6.39375 -0.2475 9.6875 -0.375 C10.68612061 -0.42962402 11.68474121 -0.48424805 12.71362305 -0.54052734 C19.05882924 -0.65944002 19.05882924 -0.65944002 21.74047852 1.21948242 C24.10595775 3.89799636 25.68837831 6.45645671 25.5625 10.0625 C24.93908108 14.42643241 24.21639067 16.04439777 21 19 C16.65249271 21.30162151 12.48373044 21.2355731 7.6875 21.125 C3.8821875 21.063125 3.8821875 21.063125 0 21 C0 14.07 0 7.14 0 0 Z " fill="#F4F9FD" transform="translate(1343,751)"/>
<path d="M0 0 C4.34545632 2.01811455 7.20074267 4.17034606 9.8359375 8.28125 C10.75944477 11.05177181 10.99923335 12.84813758 11.0234375 15.71875 C11.03761719 16.48058594 11.05179688 17.24242187 11.06640625 18.02734375 C10.81206416 20.51472315 10.07610946 22.12933106 8.8359375 24.28125 C7.39385809 21.39709117 7.74198863 18.86403472 7.7734375 15.65625 C7.78246094 14.46773437 7.79148437 13.27921875 7.80078125 12.0546875 C7.81238281 11.13945313 7.82398438 10.22421875 7.8359375 9.28125 C7.1759375 9.28125 6.5159375 9.28125 5.8359375 9.28125 C5.4028125 8.6625 4.9696875 8.04375 4.5234375 7.40625 C2.41374866 4.74960479 1.10896198 4.15405653 -2.1640625 3.28125 C-6.72085295 2.83758683 -11.23937775 2.70217145 -15.1640625 5.28125 C-18.54945568 10.96387427 -18.82260256 16.76996226 -19.1640625 23.28125 C-19.8240625 22.95125 -20.4840625 22.62125 -21.1640625 22.28125 C-21.24566998 20.38614301 -21.30352709 18.49000496 -21.3515625 16.59375 C-21.38636719 15.53800781 -21.42117188 14.48226562 -21.45703125 13.39453125 C-21.06239663 9.20088071 -19.57179672 6.69973028 -16.62890625 3.734375 C-11.21850554 -0.52752633 -6.78116562 -2.25222829 0 0 Z " fill="#D1D0C9" transform="translate(578.1640625,728.71875)"/>
<path d="M0 0 C5.94 0 11.88 0 18 0 C18 0.33 18 0.66 18 1 C12.72 1 7.44 1 2 1 C2 6.94 2 12.88 2 19 C6.62 19 11.24 19 16 19 C16 19.66 16 20.32 16 21 C10.72 21 5.44 21 0 21 C0 14.07 0 7.14 0 0 Z " fill="#DEE2EC" transform="translate(1343,751)"/>
<path d="M0 0 C0.33 0 0.66 0 1 0 C0.03644647 18.82004556 0.03644647 18.82004556 -1 28 C-6.01202555 25.01665146 -9.38748484 21.56048012 -13 17 C-9.05860922 18.66751148 -6.2107188 21.22710649 -3 24 C-2.94465088 23.30849854 -2.88930176 22.61699707 -2.83227539 21.90454102 C-2.58036469 18.79012786 -2.32152649 15.67632905 -2.0625 12.5625 C-1.97548828 11.47388672 -1.88847656 10.38527344 -1.79882812 9.26367188 C-1.66831055 7.71196289 -1.66831055 7.71196289 -1.53515625 6.12890625 C-1.456604 5.17056885 -1.37805176 4.21223145 -1.29711914 3.22485352 C-1 1 -1 1 0 0 Z " fill="#77E5FA" transform="translate(199,800)"/>
<path d="M0 0 C-0.66 1.65 -1.32 3.3 -2 5 C-2.66 5 -3.32 5 -4 5 C-4.04125 5.556875 -4.0825 6.11375 -4.125 6.6875 C-5.48977108 10.294395 -7.91080176 11.73038496 -11 14 C-11.66 14 -12.32 14 -13 14 C-11.42491141 10.33620697 -9.15806427 7.70148695 -6.5 4.75 C-5.7059375 3.85796875 -4.911875 2.9659375 -4.09375 2.046875 C-2 0 -2 0 0 0 Z " fill="#6BAEF0" transform="translate(533,503)"/>
<path d="M0 0 C0.99 0.33 1.98 0.66 3 1 C2.01 1.495 2.01 1.495 1 2 C0.71382812 2.75667969 0.42765625 3.51335937 0.1328125 4.29296875 C-1.16329993 7.39023053 -2.70479469 9.0094014 -5.125 11.3125 C-5.84945312 12.00988281 -6.57390625 12.70726562 -7.3203125 13.42578125 C-7.87460937 13.94527344 -8.42890625 14.46476562 -9 15 C-9.66 14.67 -10.32 14.34 -11 14 C-10.45730469 13.40832031 -9.91460938 12.81664062 -9.35546875 12.20703125 C-8.64003906 11.41683594 -7.92460938 10.62664062 -7.1875 9.8125 C-6.47980469 9.03519531 -5.77210938 8.25789063 -5.04296875 7.45703125 C-3.06664371 5.08015085 -1.51417406 2.68921134 0 0 Z " fill="#65AAF3" transform="translate(585,428)"/>
<path d="M0 0 C0.66 0 1.32 0 2 0 C1.4714941 6.07781789 -0.23120855 11.54600325 -3 17 C-3.66 17.33 -4.32 17.66 -5 18 C-4.52936682 14.89382104 -3.76645624 12.46479554 -2.5 9.5625 C-1.12049408 6.28617344 -0.4278842 3.5086504 0 0 Z " fill="#719FF9" transform="translate(726,792)"/>
<path d="M0 0 C2.00993705 3.01490557 2.72623341 5.2149927 3.625 8.6875 C3.88539063 9.68136719 4.14578125 10.67523438 4.4140625 11.69921875 C4.60742188 12.45847656 4.80078125 13.21773438 5 14 C3.02 14 1.04 14 -1 14 C-1 13.34 -1 12.68 -1 12 C-0.34 12 0.32 12 1 12 C0.67 8.04 0.34 4.08 0 0 Z " fill="#6AC0EB" transform="translate(324,360)"/>
<path d="M0 0 C1.32 0.99 2.64 1.98 4 3 C3.46599103 6.91606575 2.80330533 9.39338934 1 13 C0.67 8.71 0.34 4.42 0 0 Z " fill="#DCAD90" transform="translate(385,516)"/>
<path d="M0 0 C0.33 0 0.66 0 1 0 C1.33 4.62 1.66 9.24 2 14 C1.34 14 0.68 14 0 14 C-1.33257403 4.58997722 -1.33257403 4.58997722 0 0 Z " fill="#6DC3EC" transform="translate(385,520)"/>
<path d="M0 0 C2.72426311 2.35277269 3.8141763 4.62496331 5 8 C3 8 3 8 1.375 6.8125 C-0.42149467 4.44439338 -0.23521845 2.90102749 0 0 Z " fill="#6EC0F0" transform="translate(360,483)"/>
</svg>
